<?xml version="1.0" standalone="no"?>
<!DOCTYPE svg PUBLIC "-//W3C//DTD SVG 20010904//EN"
 "http://www.w3.org/TR/2001/REC-SVG-20010904/DTD/svg10.dtd">
<svg version="1.0" xmlns="http://www.w3.org/2000/svg"
 width="650.000000pt" height="332.000000pt" viewBox="0 0 650.000000 332.000000"
 preserveAspectRatio="xMidYMid meet">

<g transform="translate(0.000000,332.000000) scale(0.100000,-0.100000)"
fill="#000000" stroke="none">
<path d="M2185 3039 c-60 -155 -111 -285 -113 -290 -2 -5 316 -9 728 -9 693 0
732 -1 727 -17 -9 -36 -328 -917 -332 -922 -3 -2 -6 -2 -8 0 -2 2 -62 166
-133 364 l-129 360 -358 3 c-305 2 -358 0 -355 -12 7 -32 973 -2506 979 -2506
5 0 1289 3288 1289 3303 0 4 -492 7 -1092 7 l-1093 0 -110 -281z"/>
<path d="M415 2530 c-131 -16 -215 -53 -287 -127 -83 -85 -128 -220 -128 -383
0 -248 106 -395 325 -450 29 -7 156 -15 303 -19 289 -7 286 -6 280 -91 -5 -68
-7 -69 -465 -69 l-393 -1 0 -206 0 -206 232 7 c435 12 705 36 831 75 54 17 73
29 110 70 88 98 112 184 104 375 -8 195 -46 286 -152 366 -88 66 -108 70 -434
83 -325 13 -321 12 -321 81 0 42 24 72 68 85 22 6 184 10 410 10 l372 0 0 205
0 205 -397 -1 c-219 -1 -425 -5 -458 -9z"/>
<path d="M1450 1760 l0 -780 605 0 c333 0 605 4 605 8 0 5 -31 85 -69 178
l-68 169 -322 3 -321 2 0 125 0 125 269 2 270 3 -67 165 -68 165 -202 3 -202
2 0 125 0 125 150 0 c83 0 150 1 150 3 0 1 -31 81 -69 177 l-68 175 -297 3
-296 2 0 -780z"/>
<path d="M4261 2359 c-39 -99 -71 -182 -71 -185 0 -2 162 -4 360 -4 l360 0 0
185 0 185 -289 0 -289 0 -71 -181z"/>
<path d="M5020 1755 l0 -785 215 0 215 0 2 433 3 434 328 -429 328 -428 190 0
189 0 0 780 0 780 -210 0 -210 0 -2 -413 -3 -413 -315 413 -315 413 -207 0
-208 0 0 -785z"/>
<path d="M3897 1456 c-103 -262 -187 -478 -187 -481 0 -3 272 -5 605 -5 l605
0 0 185 0 185 -420 0 -420 0 0 125 0 125 380 0 380 0 -2 168 -3 167 -376 3
-376 2 -186 -474z"/>
<path d="M3680 750 l0 -100 110 0 110 0 0 -325 0 -326 103 3 102 3 3 323 2
322 110 0 110 0 0 100 0 100 -325 0 -325 0 0 -100z"/>
<path d="M4613 836 c-136 -43 -205 -162 -219 -375 -15 -217 75 -401 214 -441
20 -6 119 -13 220 -17 l182 -6 0 106 0 107 -168 0 c-165 0 -169 1 -191 24 -13
13 -26 40 -31 60 l-8 36 199 0 199 0 0 100 0 100 -195 0 -195 0 0 26 c0 16 13
39 34 60 l34 34 161 0 161 0 0 100 0 100 -177 -1 c-117 0 -192 -5 -220 -13z"/>
<path d="M5353 836 c-102 -32 -156 -94 -196 -221 -32 -105 -31 -294 2 -387 34
-93 84 -156 152 -191 54 -28 62 -29 247 -34 l192 -6 0 106 0 107 -167 0 c-187
1 -192 2 -219 66 -24 55 -24 211 0 281 29 88 42 93 227 93 l159 0 0 100 0 100
-177 -1 c-117 0 -192 -5 -220 -13z"/>
<path d="M5892 428 l3 -423 98 -3 97 -3 0 166 0 165 105 0 105 0 0 -165 0
-165 100 0 100 0 0 425 0 425 -100 0 -100 0 0 -155 0 -155 -105 0 -105 0 0
155 0 155 -100 0 -100 0 2 -422z"/>
</g>
</svg>
