<?xml version="1.0" standalone="no"?>
<!DOCTYPE svg PUBLIC "-//W3C//DTD SVG 20010904//EN"
 "http://www.w3.org/TR/2001/REC-SVG-20010904/DTD/svg10.dtd">
<svg version="1.0" xmlns="http://www.w3.org/2000/svg"
 width="512.000000pt" height="512.000000pt" viewBox="0 0 512.000000 512.000000"
 preserveAspectRatio="xMidYMid meet">

<g transform="translate(0.000000,512.000000) scale(0.100000,-0.100000)"
fill="#000000" stroke="none">
<path d="M1805 5098 c-8 -34 -175 -867 -175 -873 0 -3 259 -5 575 -5 454 0
575 -3 575 -12 -1 -14 -2 -21 -74 -413 -25 -137 -48 -263 -51 -280 -3 -16 -17
-91 -31 -165 -14 -74 -43 -234 -65 -355 -22 -121 -42 -221 -44 -223 -5 -5 -7
5 -35 163 -12 66 -26 143 -31 170 -16 82 -120 644 -133 720 l-12 70 -282 3
c-155 1 -282 0 -282 -3 0 -4 22 -117 49 -253 27 -136 151 -760 276 -1387 390
-1960 445 -2239 448 -2242 2 -1 40 183 85 410 267 1339 479 2403 691 3471 133
665 241 1212 241 1217 0 5 -378 9 -860 9 l-860 0 -5 -22z"/>
<path d="M335 3900 c-178 -31 -281 -202 -320 -530 -37 -313 -2 -642 85 -795
29 -50 95 -119 138 -143 32 -18 192 -44 222 -37 13 4 66 3 118 0 118 -9 132
-19 139 -102 7 -81 -1 -110 -40 -133 -30 -19 -51 -20 -334 -20 l-303 0 0 -310
0 -310 58 1 c397 3 698 51 798 126 41 30 99 157 127 277 19 80 21 119 21 331
-1 349 -29 495 -123 634 -70 103 -110 117 -364 127 -216 8 -219 10 -225 106
-3 43 1 76 12 101 26 64 45 67 371 67 l285 0 0 310 0 310 -312 -1 c-172 -1
-331 -5 -353 -9z"/>
<path d="M1142 2713 l3 -1198 475 0 475 0 -3 25 c-2 14 -11 63 -21 110 -11 47
-34 158 -52 248 l-33 162 -253 0 -253 0 0 195 0 195 211 0 212 0 -6 38 c-3 20
-24 125 -47 232 -23 107 -44 207 -47 222 l-5 28 -157 2 -156 3 -3 193 -2 192
115 0 c109 0 115 1 115 21 0 11 -22 132 -50 269 -27 137 -50 251 -50 254 0 4
-106 6 -235 6 l-235 0 2 -1197z"/>
<path d="M3410 3907 c0 -7 -100 -510 -106 -534 l-6 -23 286 0 286 0 0 280 0
280 -230 0 c-126 0 -230 -2 -230 -3z"/>
<path d="M3950 2705 l0 -1205 170 0 170 0 0 668 c1 446 4 661 11 650 8 -14
216 -543 462 -1175 l52 -133 148 0 147 0 0 1200 0 1200 -165 0 -165 0 -2 -632
-3 -633 -74 190 c-41 105 -91 233 -111 285 -80 207 -282 723 -296 756 l-14 34
-165 0 -165 0 0 -1205z"/>
<path d="M3215 2958 c-2 -7 -32 -150 -66 -318 -33 -168 -96 -483 -140 -700
-43 -217 -81 -405 -84 -417 l-5 -23 475 0 475 0 0 285 0 285 -327 2 -328 3 0
190 0 190 298 3 297 2 -2 253 -3 252 -293 3 c-229 2 -293 0 -297 -10z"/>
<path d="M2900 1160 l0 -149 83 -3 82 -3 5 -500 5 -500 77 -3 78 -3 2 503 3
503 88 3 87 3 0 149 0 150 -255 0 -255 0 0 -150z"/>
<path d="M3629 1285 c-71 -46 -121 -158 -150 -333 -16 -99 -22 -400 -10 -506
21 -183 74 -338 134 -394 34 -32 124 -51 239 -52 117 0 110 -13 106 180 l-3
135 -125 3 c-137 3 -151 9 -169 66 -5 17 -11 54 -13 81 l-3 50 155 5 155 5 0
145 0 145 -152 3 -153 3 0 32 c0 51 18 102 46 130 25 25 32 27 143 29 l116 3
3 148 3 147 -143 -1 c-133 0 -146 -2 -179 -24z"/>
<path d="M4225 1289 c-16 -10 -36 -22 -42 -25 -24 -12 -72 -103 -92 -175 -32
-119 -45 -241 -46 -439 0 -318 54 -531 155 -607 36 -28 118 -43 231 -43 l99 0
0 160 0 160 -128 0 c-143 0 -147 2 -172 70 -19 51 -25 354 -10 449 15 91 36
148 61 161 10 6 70 10 133 10 l116 0 0 150 0 150 -137 -1 c-118 0 -142 -3
-168 -20z"/>
<path d="M4640 668 c0 -354 4 -649 9 -656 5 -9 28 -12 77 -10 l69 3 5 255 5
255 77 3 78 3 2 -258 3 -258 78 -3 77 -3 0 656 0 655 -80 0 -80 0 0 -240 0
-240 -80 0 -80 0 0 240 0 240 -80 0 -80 0 0 -642z"/>
</g>
</svg>
