<svg fill="none" height="48" viewBox="0 0 48 48" width="48" xmlns="http://www.w3.org/2000/svg"><path d="m0 0h48v48h-48z" fill="#fff" fill-opacity=".01"/><rect height="24" rx="2" stroke="#000" stroke-linejoin="round" stroke-width="4" width="40" x="4" y="18"/><g fill="#000"><circle cx="14" cy="24" r="2"/><circle cx="16" cy="30" r="2"/><circle cx="10" cy="30" r="2"/><circle cx="20" cy="24" r="2"/><circle cx="22" cy="30" r="2"/><circle cx="26" cy="24" r="2"/><circle cx="28" cy="30" r="2"/><circle cx="32" cy="24" r="2"/><circle cx="34" cy="30" r="2"/><circle cx="38" cy="24" r="2"/></g><path d="m17 36h14" stroke="#000" stroke-linecap="round" stroke-linejoin="round" stroke-width="4"/><path d="m33 18v-4.875c0-.5523.4477-1 1-1h5c.5523 0 1-.4477 1-1v-5.125" stroke="#000" stroke-linecap="round" stroke-linejoin="round" stroke-width="4"/></svg>